<?xml version="1.0" encoding="UTF-8" standalone="no"?>
<!DOCTYPE svg PUBLIC "-//W3C//DTD SVG 1.1//EN"
 "http://www.w3.org/Graphics/SVG/1.1/DTD/svg11.dtd">
<!-- Generated by graphviz version 2.43.0 (0)
 -->
<!-- Pages: 1 -->
<svg width="610pt" height="131pt"
 viewBox="0.00 0.00 609.50 131.00" xmlns="http://www.w3.org/2000/svg" xmlns:xlink="http://www.w3.org/1999/xlink">
<g id="graph0" class="graph" transform="scale(1 1) rotate(0) translate(4 127)">
<polygon fill="white" stroke="transparent" points="-4,4 -4,-127 605.5,-127 605.5,4 -4,4"/>
<!-- &lt;http://example.com/drewp&gt; -->
<g id="node1" class="node">
<title>&lt;http://example.com/drewp&gt;</title>
<path fill="#b3e2cd" stroke="black" d="M254,-123C254,-123 51,-123 51,-123 45,-123 39,-117 39,-111 39,-111 39,-99 39,-99 39,-93 45,-87 51,-87 51,-87 254,-87 254,-87 260,-87 266,-93 266,-99 266,-99 266,-111 266,-111 266,-117 260,-123 254,-123"/>
<text text-anchor="middle" x="152.5" y="-101.3" font-family="Times,serif" font-size="14.00">&lt;http://example.com/drewp&gt;</text>
</g>
<!-- Hello World -->
<g id="node2" class="node">
<title>Hello World</title>
<path fill="#b3e2cd" stroke="black" d="M89,-36C89,-36 12,-36 12,-36 6,-36 0,-30 0,-24 0,-24 0,-12 0,-12 0,-6 6,0 12,0 12,0 89,0 89,0 95,0 101,-6 101,-12 101,-12 101,-24 101,-24 101,-30 95,-36 89,-36"/>
<text text-anchor="middle" x="50.5" y="-14.3" font-family="Times,serif" font-size="14.00">Hello World</text>
</g>
<!-- &lt;http://example.com/drewp&gt;&#45;&gt;Hello World -->
<g id="edge1" class="edge">
<title>&lt;http://example.com/drewp&gt;&#45;&gt;Hello World</title>
<path fill="none" stroke="black" d="M82.22,-86.88C73.61,-82.27 65.68,-76.42 59.5,-69 54.24,-62.69 51.62,-54.34 50.41,-46.29"/>
<polygon fill="black" stroke="black" points="53.87,-45.72 49.53,-36.06 46.9,-46.32 53.87,-45.72"/>
<text text-anchor="start" x="59.5" y="-57.8" font-family="Times,serif" font-size="14.00">http://example.com/says</text>
</g>
<!-- &lt;http://xmlns.com/foaf/0.1/Person&gt; -->
<g id="node3" class="node">
<title>&lt;http://xmlns.com/foaf/0.1/Person&gt;</title>
<path fill="#b3e2cd" stroke="black" d="M379.5,-36C379.5,-36 131.5,-36 131.5,-36 125.5,-36 119.5,-30 119.5,-24 119.5,-24 119.5,-12 119.5,-12 119.5,-6 125.5,0 131.5,0 131.5,0 379.5,0 379.5,0 385.5,0 391.5,-6 391.5,-12 391.5,-12 391.5,-24 391.5,-24 391.5,-30 385.5,-36 379.5,-36"/>
<text text-anchor="middle" x="255.5" y="-14.3" font-family="Times,serif" font-size="14.00">&lt;http://xmlns.com/foaf/0.1/Person&gt;</text>
</g>
<!-- &lt;http://example.com/drewp&gt;&#45;&gt;&lt;http://xmlns.com/foaf/0.1/Person&gt; -->
<g id="edge2" class="edge">
<title>&lt;http://example.com/drewp&gt;&#45;&gt;&lt;http://xmlns.com/foaf/0.1/Person&gt;</title>
<path fill="none" stroke="black" d="M207.43,-86.97C216.93,-82.25 226.11,-76.34 233.5,-69 239.98,-62.56 244.7,-53.89 248.06,-45.58"/>
<polygon fill="black" stroke="black" points="251.37,-46.74 251.42,-36.14 244.77,-44.39 251.37,-46.74"/>
<text text-anchor="start" x="243.5" y="-57.8" font-family="Times,serif" font-size="14.00">http://www.w3.org/1999/02/22&#45;rdf&#45;syntax&#45;ns#type</text>
</g>
</g>
</svg>
